M48
METRIC,LZ,000.000
;FILE_FORMAT=3:3
;TYPE=PLATED
;Layer: PTH_Through
;EasyEDA v6.4.31, 2022-01-30 11:41:32
;57c3575010554ef89b770c7f971d9fae,8da0b385d4f3487c845ab04df2d2fc66,10
;Gerber Generator version 0.2
;Holesize 1 = 0.889 mm
T01C0.889
;Holesize 2 = 1.000 mm
T02C1.000
;Holesize 3 = 2.501 mm
T03C2.501
%
G05
G90
T01
X049530Y010160
X049530Y012700
X049530Y015240
T02
X012700Y006350
X015240Y006350
X030480Y005080
X030480Y002540
X016510Y016510
X016510Y019050
X011430Y016510
X011430Y013970
X013970Y010287
X013970Y012827
X030480Y007620
X033020Y007620
X030480Y010160
X033020Y010160
X027940Y005080
X027940Y007620
X027940Y010160
X027940Y012700
X027940Y015240
X027940Y017780
X027940Y020320
X020320Y020320
X020320Y017780
X020320Y015240
X020320Y012700
X020320Y010160
X020320Y007620
X020320Y005080
X038100Y010160
X038100Y007620
X038100Y005080
X045720Y005080
X045720Y010160
X045720Y007620
X038100Y020320
X038100Y017780
X038100Y015240
X045720Y015240
X045720Y020320
X045720Y017780
X008451Y011450
X008451Y013950
X006451Y013950
X006451Y011450
T03
X003741Y006700
X003741Y018700
M30
