G04 Layer: TopSolderMaskLayer*
G04 EasyEDA v6.4.31, 2022-01-30 11:41:32*
G04 57c3575010554ef89b770c7f971d9fae,8da0b385d4f3487c845ab04df2d2fc66,10*
G04 Gerber Generator version 0.2*
G04 Scale: 100 percent, Rotated: No, Reflected: No *
G04 Dimensions in millimeters *
G04 leading zeros omitted , absolute positions ,4 integer and 5 decimal *
%FSLAX45Y45*%
%MOMM*%

%ADD10C,0.2540*%
%ADD22C,1.7000*%
%ADD23C,1.6764*%
%ADD26C,1.6256*%
%ADD27C,3.4016*%

%LPD*%
D10*
X0Y0D02*
G01*
X0Y2540000D01*
X5219700Y2540000D01*
X5219700Y0D01*
X0Y0D01*
D22*
X2823999Y762000D02*
G01*
X2764000Y762000D01*
X2823999Y1016000D02*
G01*
X2764000Y1016000D01*
X2823999Y1270000D02*
G01*
X2764000Y1270000D01*
X2823999Y1524000D02*
G01*
X2764000Y1524000D01*
X2823999Y1778000D02*
G01*
X2764000Y1778000D01*
X2823999Y2032000D02*
G01*
X2764000Y2032000D01*
X2061999Y2032000D02*
G01*
X2002000Y2032000D01*
X2061999Y1778000D02*
G01*
X2002000Y1778000D01*
X2061999Y1524000D02*
G01*
X2002000Y1524000D01*
X2061999Y1270000D02*
G01*
X2002000Y1270000D01*
X2061999Y1016000D02*
G01*
X2002000Y1016000D01*
X2061999Y762000D02*
G01*
X2002000Y762000D01*
X2061999Y508000D02*
G01*
X2002000Y508000D01*
X3780000Y762000D02*
G01*
X3839999Y762000D01*
X3780000Y508000D02*
G01*
X3839999Y508000D01*
X4542000Y508000D02*
G01*
X4601999Y508000D01*
X4542000Y1016000D02*
G01*
X4601999Y1016000D01*
X4542000Y762000D02*
G01*
X4601999Y762000D01*
X3780000Y1778000D02*
G01*
X3839999Y1778000D01*
X3780000Y1524000D02*
G01*
X3839999Y1524000D01*
X4542000Y1524000D02*
G01*
X4601999Y1524000D01*
X4542000Y2032000D02*
G01*
X4601999Y2032000D01*
X4542000Y1778000D02*
G01*
X4601999Y1778000D01*
G01*
X1270000Y635000D03*
G01*
X1524000Y635000D03*
G01*
X3048000Y508000D03*
G01*
X3048000Y254000D03*
G01*
X1651000Y1651000D03*
G01*
X1651000Y1905000D03*
G01*
X1143000Y1651000D03*
G01*
X1143000Y1397000D03*
G01*
X1397000Y1028700D03*
G01*
X1397000Y1282700D03*
G01*
X3048000Y762000D03*
G01*
X3302000Y762000D03*
G01*
X3048000Y1016000D03*
G01*
X3302000Y1016000D03*
D23*
G01*
X4953000Y1016000D03*
G01*
X4953000Y1270000D03*
G36*
X4869179Y1440179D02*
G01*
X4869179Y1607820D01*
X5036820Y1607820D01*
X5036820Y1440179D01*
G37*
G36*
X2678938Y422910D02*
G01*
X2678938Y593089D01*
X2909061Y593089D01*
X2909061Y422910D01*
G37*
G36*
X3694938Y930910D02*
G01*
X3694938Y1101089D01*
X3925061Y1101089D01*
X3925061Y930910D01*
G37*
G36*
X3694938Y1946910D02*
G01*
X3694938Y2117089D01*
X3925061Y2117089D01*
X3925061Y1946910D01*
G37*
D26*
G01*
X845096Y1145006D03*
G01*
X845096Y1395018D03*
G01*
X645096Y1395018D03*
G01*
X645096Y1145006D03*
D27*
G01*
X374103Y670001D03*
G01*
X374103Y1869998D03*
M02*
