G04 Layer: TopSilkscreenLayer*
G04 EasyEDA v6.4.31, 2022-01-30 11:41:32*
G04 57c3575010554ef89b770c7f971d9fae,8da0b385d4f3487c845ab04df2d2fc66,10*
G04 Gerber Generator version 0.2*
G04 Scale: 100 percent, Rotated: No, Reflected: No *
G04 Dimensions in millimeters *
G04 leading zeros omitted , absolute positions ,4 integer and 5 decimal *
%FSLAX45Y45*%
%MOMM*%

%ADD10C,0.2540*%
%ADD17C,0.2032*%
%ADD18C,0.2030*%
%ADD19C,0.3000*%
%ADD20C,0.1500*%
%ADD21C,0.1524*%

%LPD*%
D20*
X190500Y253237D02*
G01*
X190500Y157734D01*
X190500Y253237D02*
G01*
X254254Y157734D01*
X254254Y253237D02*
G01*
X254254Y157734D01*
X284226Y221487D02*
G01*
X284226Y176021D01*
X288797Y162305D01*
X297687Y157734D01*
X311404Y157734D01*
X320547Y162305D01*
X334010Y176021D01*
X334010Y221487D02*
G01*
X334010Y157734D01*
X364236Y253237D02*
G01*
X364236Y157734D01*
X394207Y253237D02*
G01*
X394207Y157734D01*
X424179Y221487D02*
G01*
X424179Y125984D01*
X424179Y207771D02*
G01*
X433323Y216915D01*
X442213Y221487D01*
X455929Y221487D01*
X465073Y216915D01*
X474218Y207771D01*
X478789Y194310D01*
X478789Y185165D01*
X474218Y171450D01*
X465073Y162305D01*
X455929Y157734D01*
X442213Y157734D01*
X433323Y162305D01*
X424179Y171450D01*
X531368Y221487D02*
G01*
X522223Y216915D01*
X513334Y207771D01*
X508762Y194310D01*
X508762Y185165D01*
X513334Y171450D01*
X522223Y162305D01*
X531368Y157734D01*
X545084Y157734D01*
X554228Y162305D01*
X563118Y171450D01*
X567689Y185165D01*
X567689Y194310D01*
X563118Y207771D01*
X554228Y216915D01*
X545084Y221487D01*
X531368Y221487D01*
X597662Y253237D02*
G01*
X602234Y248665D01*
X606805Y253237D01*
X602234Y257810D01*
X597662Y253237D01*
X602234Y221487D02*
G01*
X602234Y157734D01*
X636778Y221487D02*
G01*
X636778Y157734D01*
X636778Y203200D02*
G01*
X650494Y216915D01*
X659637Y221487D01*
X673354Y221487D01*
X682244Y216915D01*
X686815Y203200D01*
X686815Y157734D01*
X730504Y253237D02*
G01*
X730504Y176021D01*
X735076Y162305D01*
X744220Y157734D01*
X753110Y157734D01*
X716787Y221487D02*
G01*
X748792Y221487D01*
X783336Y194310D02*
G01*
X837692Y194310D01*
X837692Y203200D01*
X833120Y212344D01*
X828802Y216915D01*
X819657Y221487D01*
X805942Y221487D01*
X796797Y216915D01*
X787654Y207771D01*
X783336Y194310D01*
X783336Y185165D01*
X787654Y171450D01*
X796797Y162305D01*
X805942Y157734D01*
X819657Y157734D01*
X828802Y162305D01*
X837692Y171450D01*
X867663Y221487D02*
G01*
X867663Y157734D01*
X867663Y194310D02*
G01*
X872236Y207771D01*
X881379Y216915D01*
X890523Y221487D01*
X904239Y221487D01*
X1004062Y253237D02*
G01*
X1026921Y157734D01*
X1049528Y253237D02*
G01*
X1026921Y157734D01*
X1049528Y253237D02*
G01*
X1072387Y157734D01*
X1094994Y253237D02*
G01*
X1072387Y157734D01*
X1147826Y221487D02*
G01*
X1138681Y216915D01*
X1129537Y207771D01*
X1124965Y194310D01*
X1124965Y185165D01*
X1129537Y171450D01*
X1138681Y162305D01*
X1147826Y157734D01*
X1161287Y157734D01*
X1170431Y162305D01*
X1179576Y171450D01*
X1184147Y185165D01*
X1184147Y194310D01*
X1179576Y207771D01*
X1170431Y216915D01*
X1161287Y221487D01*
X1147826Y221487D01*
X1214120Y221487D02*
G01*
X1214120Y157734D01*
X1214120Y194310D02*
G01*
X1218692Y207771D01*
X1227836Y216915D01*
X1236979Y221487D01*
X1250442Y221487D01*
X1280413Y253237D02*
G01*
X1280413Y157734D01*
X1325879Y221487D02*
G01*
X1280413Y176021D01*
X1298702Y194310D02*
G01*
X1330452Y157734D01*
X1410462Y207771D02*
G01*
X1405889Y216915D01*
X1392428Y221487D01*
X1378712Y221487D01*
X1364995Y216915D01*
X1360423Y207771D01*
X1364995Y198881D01*
X1374139Y194310D01*
X1396745Y189737D01*
X1405889Y185165D01*
X1410462Y176021D01*
X1410462Y171450D01*
X1405889Y162305D01*
X1392428Y157734D01*
X1378712Y157734D01*
X1364995Y162305D01*
X1360423Y171450D01*
X190500Y2386837D02*
G01*
X190500Y2291334D01*
X190500Y2386837D02*
G01*
X222250Y2386837D01*
X235965Y2382265D01*
X245110Y2373376D01*
X249681Y2364231D01*
X254254Y2350515D01*
X254254Y2327910D01*
X249681Y2314194D01*
X245110Y2305050D01*
X235965Y2295905D01*
X222250Y2291334D01*
X190500Y2291334D01*
X347726Y2373376D02*
G01*
X338581Y2382265D01*
X325120Y2386837D01*
X306831Y2386837D01*
X293115Y2382265D01*
X284226Y2373376D01*
X284226Y2364231D01*
X288797Y2355087D01*
X293115Y2350515D01*
X302260Y2345944D01*
X329692Y2336800D01*
X338581Y2332481D01*
X343154Y2327910D01*
X347726Y2318765D01*
X347726Y2305050D01*
X338581Y2295905D01*
X325120Y2291334D01*
X306831Y2291334D01*
X293115Y2295905D01*
X284226Y2305050D01*
X377697Y2386837D02*
G01*
X377697Y2291334D01*
X377697Y2291334D02*
G01*
X432307Y2291334D01*
X462279Y2386837D02*
G01*
X462279Y2291334D01*
X462279Y2386837D02*
G01*
X503173Y2386837D01*
X516889Y2382265D01*
X521462Y2377694D01*
X526034Y2368804D01*
X526034Y2359660D01*
X521462Y2350515D01*
X516889Y2345944D01*
X503173Y2341371D01*
X462279Y2341371D01*
X494029Y2341371D02*
G01*
X526034Y2291334D01*
X625855Y2386837D02*
G01*
X625855Y2318765D01*
X630428Y2305050D01*
X639571Y2295905D01*
X653287Y2291334D01*
X662431Y2291334D01*
X675894Y2295905D01*
X685037Y2305050D01*
X689610Y2318765D01*
X689610Y2386837D01*
X783336Y2373376D02*
G01*
X774192Y2382265D01*
X760476Y2386837D01*
X742442Y2386837D01*
X728726Y2382265D01*
X719581Y2373376D01*
X719581Y2364231D01*
X724154Y2355087D01*
X728726Y2350515D01*
X737870Y2345944D01*
X765047Y2336800D01*
X774192Y2332481D01*
X778763Y2327910D01*
X783336Y2318765D01*
X783336Y2305050D01*
X774192Y2295905D01*
X760476Y2291334D01*
X742442Y2291334D01*
X728726Y2295905D01*
X719581Y2305050D01*
X813307Y2386837D02*
G01*
X813307Y2291334D01*
X813307Y2386837D02*
G01*
X854202Y2386837D01*
X867663Y2382265D01*
X872236Y2377694D01*
X876807Y2368804D01*
X876807Y2359660D01*
X872236Y2350515D01*
X867663Y2345944D01*
X854202Y2341371D01*
X813307Y2341371D02*
G01*
X854202Y2341371D01*
X867663Y2336800D01*
X872236Y2332481D01*
X876807Y2323337D01*
X876807Y2309621D01*
X872236Y2300478D01*
X867663Y2295905D01*
X854202Y2291334D01*
X813307Y2291334D01*
X976884Y2386837D02*
G01*
X976884Y2291334D01*
X1006855Y2355087D02*
G01*
X1006855Y2291334D01*
X1006855Y2336800D02*
G01*
X1020571Y2350515D01*
X1029715Y2355087D01*
X1043178Y2355087D01*
X1052321Y2350515D01*
X1056894Y2336800D01*
X1056894Y2291334D01*
X1100581Y2386837D02*
G01*
X1100581Y2309621D01*
X1105154Y2295905D01*
X1114044Y2291334D01*
X1123187Y2291334D01*
X1086865Y2355087D02*
G01*
X1118615Y2355087D01*
X1153160Y2327910D02*
G01*
X1207770Y2327910D01*
X1207770Y2336800D01*
X1203197Y2345944D01*
X1198626Y2350515D01*
X1189481Y2355087D01*
X1176020Y2355087D01*
X1166876Y2350515D01*
X1157731Y2341371D01*
X1153160Y2327910D01*
X1153160Y2318765D01*
X1157731Y2305050D01*
X1166876Y2295905D01*
X1176020Y2291334D01*
X1189481Y2291334D01*
X1198626Y2295905D01*
X1207770Y2305050D01*
X1237742Y2355087D02*
G01*
X1237742Y2291334D01*
X1237742Y2327910D02*
G01*
X1242313Y2341371D01*
X1251457Y2350515D01*
X1260602Y2355087D01*
X1274063Y2355087D01*
X1304036Y2355087D02*
G01*
X1331468Y2291334D01*
X1358645Y2355087D02*
G01*
X1331468Y2291334D01*
X1443228Y2355087D02*
G01*
X1443228Y2291334D01*
X1443228Y2341371D02*
G01*
X1434084Y2350515D01*
X1424939Y2355087D01*
X1411478Y2355087D01*
X1402334Y2350515D01*
X1393189Y2341371D01*
X1388618Y2327910D01*
X1388618Y2318765D01*
X1393189Y2305050D01*
X1402334Y2295905D01*
X1411478Y2291334D01*
X1424939Y2291334D01*
X1434084Y2295905D01*
X1443228Y2305050D01*
X1473200Y2386837D02*
G01*
X1473200Y2291334D01*
X1526031Y2355087D02*
G01*
X1516887Y2350515D01*
X1507744Y2341371D01*
X1503171Y2327910D01*
X1503171Y2318765D01*
X1507744Y2305050D01*
X1516887Y2295905D01*
X1526031Y2291334D01*
X1539494Y2291334D01*
X1548637Y2295905D01*
X1557781Y2305050D01*
X1562354Y2318765D01*
X1562354Y2327910D01*
X1557781Y2341371D01*
X1548637Y2350515D01*
X1539494Y2355087D01*
X1526031Y2355087D01*
X1592326Y2355087D02*
G01*
X1592326Y2291334D01*
X1592326Y2336800D02*
G01*
X1606042Y2350515D01*
X1614931Y2355087D01*
X1628647Y2355087D01*
X1637792Y2350515D01*
X1642363Y2336800D01*
X1642363Y2291334D01*
X1642363Y2336800D02*
G01*
X1656079Y2350515D01*
X1664970Y2355087D01*
X1678686Y2355087D01*
X1687829Y2350515D01*
X1692402Y2336800D01*
X1692402Y2291334D01*
X1722373Y2327910D02*
G01*
X1776984Y2327910D01*
X1776984Y2336800D01*
X1772412Y2345944D01*
X1767839Y2350515D01*
X1758695Y2355087D01*
X1744979Y2355087D01*
X1735836Y2350515D01*
X1726945Y2341371D01*
X1722373Y2327910D01*
X1722373Y2318765D01*
X1726945Y2305050D01*
X1735836Y2295905D01*
X1744979Y2291334D01*
X1758695Y2291334D01*
X1767839Y2295905D01*
X1776984Y2305050D01*
X1820418Y2386837D02*
G01*
X1820418Y2309621D01*
X1824989Y2295905D01*
X1834134Y2291334D01*
X1843278Y2291334D01*
X1806955Y2355087D02*
G01*
X1838705Y2355087D01*
X1873250Y2327910D02*
G01*
X1927860Y2327910D01*
X1927860Y2336800D01*
X1923287Y2345944D01*
X1918715Y2350515D01*
X1909571Y2355087D01*
X1895855Y2355087D01*
X1886965Y2350515D01*
X1877821Y2341371D01*
X1873250Y2327910D01*
X1873250Y2318765D01*
X1877821Y2305050D01*
X1886965Y2295905D01*
X1895855Y2291334D01*
X1909571Y2291334D01*
X1918715Y2295905D01*
X1927860Y2305050D01*
X1957831Y2355087D02*
G01*
X1957831Y2291334D01*
X1957831Y2327910D02*
G01*
X1962404Y2341371D01*
X1971293Y2350515D01*
X1980438Y2355087D01*
X1994154Y2355087D01*
X2094229Y2355087D02*
G01*
X2121408Y2291334D01*
X2148586Y2355087D02*
G01*
X2121408Y2291334D01*
X2178558Y2368804D02*
G01*
X2187702Y2373376D01*
X2201418Y2386837D01*
X2201418Y2291334D01*
X2235961Y2314194D02*
G01*
X2231390Y2309621D01*
X2235961Y2305050D01*
X2240534Y2309621D01*
X2235961Y2314194D01*
X2297684Y2386837D02*
G01*
X2284222Y2382265D01*
X2275077Y2368804D01*
X2270506Y2345944D01*
X2270506Y2332481D01*
X2275077Y2309621D01*
X2284222Y2295905D01*
X2297684Y2291334D01*
X2306827Y2291334D01*
X2320543Y2295905D01*
X2329688Y2309621D01*
X2334259Y2332481D01*
X2334259Y2345944D01*
X2329688Y2368804D01*
X2320543Y2382265D01*
X2306827Y2386837D01*
X2297684Y2386837D01*
X2368804Y2314194D02*
G01*
X2364231Y2309621D01*
X2368804Y2305050D01*
X2373122Y2309621D01*
X2368804Y2314194D01*
X2430525Y2386837D02*
G01*
X2416809Y2382265D01*
X2407665Y2368804D01*
X2403347Y2345944D01*
X2403347Y2332481D01*
X2407665Y2309621D01*
X2416809Y2295905D01*
X2430525Y2291334D01*
X2439670Y2291334D01*
X2453131Y2295905D01*
X2462275Y2309621D01*
X2466847Y2332481D01*
X2466847Y2345944D01*
X2462275Y2368804D01*
X2453131Y2382265D01*
X2439670Y2386837D01*
X2430525Y2386837D01*
D21*
X1769871Y675131D02*
G01*
X1765554Y684276D01*
X1756410Y693165D01*
X1747265Y697737D01*
X1728978Y697737D01*
X1720087Y693165D01*
X1710944Y684276D01*
X1706371Y675131D01*
X1701800Y661415D01*
X1701800Y638810D01*
X1706371Y625094D01*
X1710944Y615950D01*
X1720087Y606805D01*
X1728978Y602234D01*
X1747265Y602234D01*
X1756410Y606805D01*
X1765554Y615950D01*
X1769871Y625094D01*
X1800097Y679704D02*
G01*
X1808987Y684276D01*
X1822704Y697737D01*
X1822704Y602234D01*
X3255772Y408431D02*
G01*
X3251454Y417576D01*
X3242309Y426465D01*
X3233165Y431037D01*
X3214877Y431037D01*
X3205988Y426465D01*
X3196843Y417576D01*
X3192272Y408431D01*
X3187700Y394715D01*
X3187700Y372110D01*
X3192272Y358394D01*
X3196843Y349250D01*
X3205988Y340105D01*
X3214877Y335534D01*
X3233165Y335534D01*
X3242309Y340105D01*
X3251454Y349250D01*
X3255772Y358394D01*
X3290315Y408431D02*
G01*
X3290315Y413004D01*
X3294888Y421894D01*
X3299459Y426465D01*
X3308604Y431037D01*
X3326891Y431037D01*
X3335781Y426465D01*
X3340354Y421894D01*
X3344925Y413004D01*
X3344925Y403860D01*
X3340354Y394715D01*
X3331209Y381000D01*
X3285997Y335534D01*
X3349497Y335534D01*
X1414271Y1792731D02*
G01*
X1409954Y1801876D01*
X1400810Y1810765D01*
X1391665Y1815337D01*
X1373378Y1815337D01*
X1364487Y1810765D01*
X1355344Y1801876D01*
X1350771Y1792731D01*
X1346200Y1779015D01*
X1346200Y1756410D01*
X1350771Y1742694D01*
X1355344Y1733550D01*
X1364487Y1724405D01*
X1373378Y1719834D01*
X1391665Y1719834D01*
X1400810Y1724405D01*
X1409954Y1733550D01*
X1414271Y1742694D01*
X1453387Y1815337D02*
G01*
X1503426Y1815337D01*
X1476247Y1779015D01*
X1489710Y1779015D01*
X1498854Y1774444D01*
X1503426Y1769871D01*
X1507997Y1756410D01*
X1507997Y1747265D01*
X1503426Y1733550D01*
X1494281Y1724405D01*
X1480820Y1719834D01*
X1467104Y1719834D01*
X1453387Y1724405D01*
X1448815Y1728978D01*
X1444497Y1738121D01*
X1295400Y1574037D02*
G01*
X1295400Y1478534D01*
X1295400Y1574037D02*
G01*
X1327150Y1574037D01*
X1340865Y1569465D01*
X1350010Y1560576D01*
X1354581Y1551431D01*
X1359154Y1537715D01*
X1359154Y1515110D01*
X1354581Y1501394D01*
X1350010Y1492250D01*
X1340865Y1483105D01*
X1327150Y1478534D01*
X1295400Y1478534D01*
X1389126Y1556004D02*
G01*
X1398015Y1560576D01*
X1411731Y1574037D01*
X1411731Y1478534D01*
X1092200Y1205737D02*
G01*
X1092200Y1110234D01*
X1092200Y1205737D02*
G01*
X1123950Y1205737D01*
X1137665Y1201165D01*
X1146810Y1192276D01*
X1151381Y1183131D01*
X1155954Y1169415D01*
X1155954Y1146810D01*
X1151381Y1133094D01*
X1146810Y1123950D01*
X1137665Y1114805D01*
X1123950Y1110234D01*
X1092200Y1110234D01*
X1190497Y1183131D02*
G01*
X1190497Y1187704D01*
X1194815Y1196594D01*
X1199387Y1201165D01*
X1208531Y1205737D01*
X1226820Y1205737D01*
X1235710Y1201165D01*
X1240281Y1196594D01*
X1244854Y1187704D01*
X1244854Y1178560D01*
X1240281Y1169415D01*
X1231392Y1155700D01*
X1185926Y1110234D01*
X1249426Y1110234D01*
X3429000Y799337D02*
G01*
X3429000Y703834D01*
X3429000Y799337D02*
G01*
X3469893Y799337D01*
X3483609Y794765D01*
X3488181Y790194D01*
X3492754Y781304D01*
X3492754Y772160D01*
X3488181Y763015D01*
X3483609Y758444D01*
X3469893Y753871D01*
X3429000Y753871D01*
X3460750Y753871D02*
G01*
X3492754Y703834D01*
X3522725Y781304D02*
G01*
X3531615Y785876D01*
X3545331Y799337D01*
X3545331Y703834D01*
X3429000Y1066037D02*
G01*
X3429000Y970534D01*
X3429000Y1066037D02*
G01*
X3469893Y1066037D01*
X3483609Y1061465D01*
X3488181Y1056894D01*
X3492754Y1048004D01*
X3492754Y1038860D01*
X3488181Y1029715D01*
X3483609Y1025144D01*
X3469893Y1020571D01*
X3429000Y1020571D01*
X3460750Y1020571D02*
G01*
X3492754Y970534D01*
X3527297Y1043431D02*
G01*
X3527297Y1048004D01*
X3531615Y1056894D01*
X3536188Y1061465D01*
X3545331Y1066037D01*
X3563620Y1066037D01*
X3572509Y1061465D01*
X3577081Y1056894D01*
X3581654Y1048004D01*
X3581654Y1038860D01*
X3577081Y1029715D01*
X3568191Y1016000D01*
X3522725Y970534D01*
X3586225Y970534D01*
X4868672Y789431D02*
G01*
X4864354Y798576D01*
X4855209Y807465D01*
X4846065Y812037D01*
X4827777Y812037D01*
X4818888Y807465D01*
X4809743Y798576D01*
X4805172Y789431D01*
X4800600Y775715D01*
X4800600Y753110D01*
X4805172Y739394D01*
X4809743Y730250D01*
X4818888Y721105D01*
X4827777Y716534D01*
X4846065Y716534D01*
X4855209Y721105D01*
X4864354Y730250D01*
X4868672Y739394D01*
X4926075Y812037D02*
G01*
X4916931Y807465D01*
X4907788Y798576D01*
X4903215Y789431D01*
X4898897Y775715D01*
X4898897Y753110D01*
X4903215Y739394D01*
X4907788Y730250D01*
X4916931Y721105D01*
X4926075Y716534D01*
X4944109Y716534D01*
X4953254Y721105D01*
X4962397Y730250D01*
X4966970Y739394D01*
X4971541Y753110D01*
X4971541Y775715D01*
X4966970Y789431D01*
X4962397Y798576D01*
X4953254Y807465D01*
X4944109Y812037D01*
X4926075Y812037D01*
X5001513Y812037D02*
G01*
X5001513Y716534D01*
X5001513Y812037D02*
G01*
X5065268Y716534D01*
X5065268Y812037D02*
G01*
X5065268Y716534D01*
X5095240Y794004D02*
G01*
X5104129Y798576D01*
X5117845Y812037D01*
X5117845Y716534D01*
X2349500Y304037D02*
G01*
X2349500Y235965D01*
X2354072Y222250D01*
X2363215Y213105D01*
X2376677Y208534D01*
X2385822Y208534D01*
X2399538Y213105D01*
X2408681Y222250D01*
X2413254Y235965D01*
X2413254Y304037D01*
X2443225Y286004D02*
G01*
X2452115Y290576D01*
X2465831Y304037D01*
X2465831Y208534D01*
X4102100Y304037D02*
G01*
X4102100Y235965D01*
X4106672Y222250D01*
X4115815Y213105D01*
X4129277Y208534D01*
X4138422Y208534D01*
X4152138Y213105D01*
X4161281Y222250D01*
X4165854Y235965D01*
X4165854Y304037D01*
X4200397Y281431D02*
G01*
X4200397Y286004D01*
X4204715Y294894D01*
X4209288Y299465D01*
X4218431Y304037D01*
X4236720Y304037D01*
X4245609Y299465D01*
X4250181Y294894D01*
X4254754Y286004D01*
X4254754Y276860D01*
X4250181Y267715D01*
X4241291Y254000D01*
X4195825Y208534D01*
X4259325Y208534D01*
X4127500Y2323337D02*
G01*
X4127500Y2255265D01*
X4132072Y2241550D01*
X4141215Y2232405D01*
X4154677Y2227834D01*
X4163822Y2227834D01*
X4177538Y2232405D01*
X4186681Y2241550D01*
X4191254Y2255265D01*
X4191254Y2323337D01*
X4230115Y2323337D02*
G01*
X4280154Y2323337D01*
X4252975Y2287015D01*
X4266691Y2287015D01*
X4275581Y2282444D01*
X4280154Y2277871D01*
X4284725Y2264410D01*
X4284725Y2255265D01*
X4280154Y2241550D01*
X4271009Y2232405D01*
X4257547Y2227834D01*
X4243831Y2227834D01*
X4230115Y2232405D01*
X4225797Y2236978D01*
X4221225Y2246121D01*
X609600Y507237D02*
G01*
X609600Y439165D01*
X614171Y425450D01*
X623315Y416305D01*
X636778Y411734D01*
X645921Y411734D01*
X659637Y416305D01*
X668781Y425450D01*
X673354Y439165D01*
X673354Y507237D01*
X766826Y493776D02*
G01*
X757681Y502665D01*
X744220Y507237D01*
X725931Y507237D01*
X712215Y502665D01*
X703326Y493776D01*
X703326Y484631D01*
X707897Y475487D01*
X712215Y470915D01*
X721360Y466344D01*
X748792Y457200D01*
X757681Y452881D01*
X762254Y448310D01*
X766826Y439165D01*
X766826Y425450D01*
X757681Y416305D01*
X744220Y411734D01*
X725931Y411734D01*
X712215Y416305D01*
X703326Y425450D01*
X796797Y507237D02*
G01*
X796797Y411734D01*
X796797Y507237D02*
G01*
X837692Y507237D01*
X851407Y502665D01*
X855979Y498094D01*
X860552Y489204D01*
X860552Y480060D01*
X855979Y470915D01*
X851407Y466344D01*
X837692Y461771D01*
X796797Y461771D02*
G01*
X837692Y461771D01*
X851407Y457200D01*
X855979Y452881D01*
X860552Y443737D01*
X860552Y430021D01*
X855979Y420878D01*
X851407Y416305D01*
X837692Y411734D01*
X796797Y411734D01*
X890523Y489204D02*
G01*
X899668Y493776D01*
X913129Y507237D01*
X913129Y411734D01*
D10*
X0Y0D02*
G01*
X0Y2540000D01*
X5219700Y2540000D01*
X5219700Y0D01*
X0Y0D01*
X1244600Y774700D02*
G01*
X1295400Y774700D01*
X1270000Y800100D02*
G01*
X1270000Y749300D01*
X1606547Y731514D02*
G01*
X1606547Y762000D01*
X1590497Y743198D02*
G01*
X1590497Y787400D01*
X1570017Y753369D02*
G01*
X1570017Y812800D01*
X1547583Y759790D02*
G01*
X1547583Y825500D01*
X1605579Y537667D02*
G01*
X1605579Y515320D01*
X1612900Y508000D01*
X1589918Y526445D02*
G01*
X1589918Y482600D01*
X1570540Y516834D02*
G01*
X1570540Y457200D01*
X1547327Y510161D02*
G01*
X1547327Y444500D01*
X1524000Y508000D02*
G01*
X1524000Y419100D01*
X1524000Y762000D02*
G01*
X1524000Y850900D01*
X2971800Y381000D02*
G01*
X3124200Y381000D01*
X1727200Y1778000D02*
G01*
X1574800Y1778000D01*
X1066800Y1524000D02*
G01*
X1219200Y1524000D01*
X1473200Y1155700D02*
G01*
X1320800Y1155700D01*
X3175000Y685800D02*
G01*
X3175000Y838200D01*
X3175000Y939800D02*
G01*
X3175000Y1092200D01*
D17*
X5080000Y1460500D02*
G01*
X5080000Y1651000D01*
X4826000Y1651000D01*
X4826000Y889000D01*
X5080000Y889000D01*
D18*
X5080000Y889000D02*
G01*
X5080000Y1460500D01*
D10*
X2463800Y381000D02*
G01*
X2616200Y381000D01*
X2362200Y381000D02*
G01*
X2209800Y381000D01*
X2209800Y1270000D02*
G01*
X2209800Y381000D01*
X2616200Y1270000D02*
G01*
X2616200Y381000D01*
X2616200Y1270000D02*
G01*
X2616200Y2159000D01*
X2209800Y2159000D01*
X2209800Y1270000D01*
X3987800Y1143000D02*
G01*
X3987800Y381000D01*
X4381500Y381000D01*
X4381500Y1143000D01*
X4381500Y1143000D02*
G01*
X4241800Y1143000D01*
X4140200Y1143000D02*
G01*
X3987800Y1143000D01*
X3987800Y2159000D02*
G01*
X3987800Y1397000D01*
X4381500Y1397000D01*
X4381500Y2159000D01*
X4381500Y2159000D02*
G01*
X4241800Y2159000D01*
X4140200Y2159000D02*
G01*
X3987800Y2159000D01*
X195958Y1930407D02*
G01*
X-749302Y1930407D01*
X939797Y1424320D02*
G01*
X939797Y1930407D01*
X552234Y1930407D01*
X939797Y1174320D02*
G01*
X939797Y1365691D01*
X555431Y620006D02*
G01*
X939797Y620006D01*
X939797Y1115692D01*
X-755904Y620006D02*
G01*
X192760Y620006D01*
X-755904Y620006D02*
G01*
X-755904Y1920008D01*
G75*
G01*
X1524000Y508000D02*
G03*
X1524000Y762000I0J127000D01*
G75*
G01*
X2463800Y381000D02*
G03*
X2362200Y381000I-50800J0D01*
G75*
G01*
X4140200Y1143000D02*
G03*
X4241800Y1143000I50800J0D01*
G75*
G01*
X4140200Y2159000D02*
G03*
X4241800Y2159000I50800J0D01*
G75*
G01
X1651000Y635000D02*
G03X1651000Y635000I-254000J0D01*
D19*
G75*
G01
X2550008Y457200D02*
G03X2550008Y457200I-10008J0D01*
G75*
G01
X4074008Y1066800D02*
G03X4074008Y1066800I-10008J0D01*
G75*
G01
X4074008Y2082800D02*
G03X4074008Y2082800I-10008J0D01*
M02*
